<svg width="24" height="24" viewBox="0 0 24 24" fill="none" xmlns="http://www.w3.org/2000/svg">
<path fill-rule="evenodd" clip-rule="evenodd" d="M23.2317 12.1223C23.2317 11.2818 23.1563 10.4736 23.0162 9.69781H11.8529V14.2827H18.2319C17.9572 15.7644 17.1221 17.0197 15.8667 17.8602V20.8342H19.6974C21.9387 18.7707 23.2317 15.732 23.2317 12.1223Z" fill="#4285F4"/>
<path fill-rule="evenodd" clip-rule="evenodd" d="M11.8528 23.7056C15.0531 23.7056 17.7362 22.6442 19.6973 20.834L15.8666 17.86C14.8053 18.5711 13.4476 18.9914 11.8528 18.9914C8.76566 18.9914 6.15263 16.9063 5.22056 14.1047H1.2606V17.1757C3.21095 21.0495 7.21939 23.7056 11.8528 23.7056Z" fill="#34A853"/>
<path fill-rule="evenodd" clip-rule="evenodd" d="M5.22067 14.1051C4.98362 13.3939 4.84892 12.6343 4.84892 11.8531C4.84892 11.0719 4.98362 10.3122 5.22067 9.60101V6.53003H1.26072C0.457954 8.13017 0 9.94044 0 11.8531C0 13.7657 0.457954 15.576 1.26072 17.1761L5.22067 14.1051Z" fill="#FBBC05"/>
<path fill-rule="evenodd" clip-rule="evenodd" d="M11.8528 4.71423C13.593 4.71423 15.1555 5.31227 16.3839 6.48678L19.7835 3.08715C17.7308 1.17452 15.0477 0 11.8528 0C7.21939 0 3.21095 2.65613 1.2606 6.52988L5.22056 9.60087C6.15263 6.79927 8.76566 4.71423 11.8528 4.71423Z" fill="#EA4335"/>
</svg>
